<?xml version="1.0" encoding="UTF-8"?>
<svg version="1.1" xmlns="http://www.w3.org/2000/svg" width="397" height="411">
<path d="M0 0 C0.91168945 0.19867676 1.82337891 0.39735352 2.76269531 0.60205078 C38.42995581 8.61547938 70.47523644 25.83753547 97 51 C97.7420166 51.69319336 97.7420166 51.69319336 98.49902344 52.40039062 C107.46634797 60.82139816 114.97831662 69.90885229 122 80 C122.62648438 80.89936279 122.62648438 80.89936279 123.265625 81.81689453 C129.04591436 90.22224225 133.78287239 99.01777887 138.15380859 108.2265625 C138.87242043 109.73262031 139.61529468 111.22706331 140.36328125 112.71875 C148.0601318 128.56373225 152.3753859 145.66112174 155 163 C155.11714355 163.75845215 155.23428711 164.5169043 155.35498047 165.29833984 C162.80601205 215.48485717 148.41168167 267.58059261 118.5 308.3125 C114.26830698 313.80047688 109.69776145 318.91143691 105 324 C103.47899005 325.72901131 101.95815613 327.4581775 100.4375 329.1875 C96.53890499 333.50069688 92.49103404 337.31617796 88 341 C87.49791016 341.42506836 86.99582031 341.85013672 86.47851562 342.28808594 C46.49071359 376.12213214 -4.91773256 391.34442683 -56.91796875 387.2890625 C-75.56144769 385.54049794 -94.88247088 381.70887267 -112.125 374.22265625 C-119.88166255 371.30971132 -127.9273888 374.7439794 -135.28125 377.5 C-136.24505081 377.85208023 -137.20885162 378.20416046 -138.20185852 378.56690979 C-140.25002381 379.31654238 -142.29652895 380.07072438 -144.34146118 380.82913208 C-147.52180029 382.00808135 -150.70678471 383.17357938 -153.89331055 384.33569336 C-162.09431343 387.33079609 -170.28884786 390.34249387 -178.45498657 393.43154907 C-180.21438088 394.09626344 -181.97627155 394.75435916 -183.73828125 395.41210938 C-185.70345056 396.14748722 -187.66370556 396.89622474 -189.6171875 397.66210938 C-195.42139191 399.82883727 -200.79421047 400.81597608 -207 400 C-209.5625 398.4375 -209.5625 398.4375 -211 396 C-212.02047198 390.90863641 -211.93871978 386.31431855 -211.28735352 381.20385742 C-211.19971741 380.45811966 -211.1120813 379.7123819 -211.02178955 378.94404602 C-210.73231701 376.49680318 -210.43045812 374.05124972 -210.12890625 371.60546875 C-209.92474403 369.89076337 -209.72154837 368.17594265 -209.51927185 366.46101379 C-208.98588901 361.95455215 -208.4427973 357.44932235 -207.89660645 352.94439697 C-207.0242629 345.74620816 -206.16127626 338.54694086 -205.30857658 331.34639931 C-205.01017722 328.84552549 -204.70431875 326.34564386 -204.39784241 323.8457489 C-201.91167554 307.81152127 -201.91167554 307.81152127 -207.375 293.25 C-221.85307464 270.27160951 -230.14145246 244.77415443 -234 218 C-234.103125 217.32501465 -234.20625 216.6500293 -234.3125 215.95458984 C-237.0174255 195.73044149 -236.32748034 172.8955228 -232 153 C-231.70198486 151.62593994 -231.70198486 151.62593994 -231.39794922 150.22412109 C-222.89176376 112.38274624 -204.39603808 81.10284957 -178 53 C-177.06994141 51.97132812 -177.06994141 51.97132812 -176.12109375 50.921875 C-151.05705493 24.2317576 -114.27014327 7.60837275 -79 0 C-78.26491211 -0.16661133 -77.52982422 -0.33322266 -76.77246094 -0.50488281 C-52.76771881 -5.75829942 -23.94076199 -5.31009727 0 0 Z " fill="#4CD057" transform="translate(237,7)"/>
<path d="M0 0 C4.88193684 2.69995711 7.48582518 5.70196609 10.125 10.5 C10.88856854 11.82855885 11.65293733 13.15665799 12.41796875 14.484375 C12.8257959 15.20173828 13.23362305 15.91910156 13.65380859 16.65820312 C16.18427914 21.06013883 18.81914503 25.39998711 21.4375 29.75 C21.95779785 30.61947266 22.4780957 31.48894531 23.01416016 32.38476562 C23.50319824 33.20138672 23.99223633 34.01800781 24.49609375 34.859375 C24.93107178 35.58608398 25.3660498 36.31279297 25.81420898 37.06152344 C26.83644216 38.73262318 27.91336298 40.37004448 29 42 C30.26623135 47.20008493 31.40215189 52.64408083 28.55859375 57.421875 C26.4876886 59.51304341 24.37460767 61.26257872 22 63 C21.2471875 63.57621094 20.494375 64.15242188 19.71875 64.74609375 C18.35198993 65.77859185 16.96929568 66.79059129 15.56640625 67.7734375 C13.85486407 68.93318727 13.85486407 68.93318727 13 71 C12.55584232 76.97709329 13.35351072 80.89328811 16.375 86.125 C16.73150635 86.7646167 17.0880127 87.4042334 17.45532227 88.06323242 C23.71010803 99.02088487 31.25496704 108.91314164 40 118 C40.44569336 118.47147461 40.89138672 118.94294922 41.35058594 119.42871094 C60.04870226 139.16901022 60.04870226 139.16901022 84.375 148.3125 C85.12523437 148.34988281 85.87546875 148.38726562 86.6484375 148.42578125 C91.87285592 147.47983174 94.89981931 143.09410484 97.9375 139.0625 C103.82962422 131.60648486 103.82962422 131.60648486 108 129 C114.65303993 128.3370098 118.77928344 129.84001282 124.59375 132.9453125 C125.38471069 133.35280731 126.17567139 133.76030212 126.99060059 134.18014526 C128.65511878 135.04178328 130.31560413 135.91125234 131.97216797 136.78808594 C134.48409251 138.11658688 137.00800348 139.41949327 139.53515625 140.71875 C141.15962503 141.56362364 142.78334849 142.40993221 144.40625 143.2578125 C145.14919312 143.64244659 145.89213623 144.02708069 146.65759277 144.42337036 C152.78085187 147.68018246 159.09638214 151.14457321 163 157 C164.26979913 165.74750514 160.88380139 171.85690961 156 179 C146.19350387 190.89814446 133.41843601 198.67407969 117.86035156 200.21142578 C101.27899627 201.22549815 86.16085595 197.41379346 71 191 C69.96721924 190.56494141 69.96721924 190.56494141 68.91357422 190.12109375 C57.49772102 185.22745035 47.1945728 179.06928677 37 172 C35.94167969 171.27039063 34.88335937 170.54078125 33.79296875 169.7890625 C1.45252906 146.49701892 -23.71773738 112.47315156 -37 75 C-37.46212891 73.75089844 -37.46212891 73.75089844 -37.93359375 72.4765625 C-43.2953897 57.44301023 -42.13495931 40.99953207 -36.25 26.3125 C-30.40157952 14.13195508 -14.90543676 -2.57978713 0 0 Z " fill="#FBFDFC" transform="translate(137,98)"/>
</svg>